<svg width="24" height="25" viewBox="0 0 24 25" fill="none" xmlns="http://www.w3.org/2000/svg">
<g id="close">
<g id="Vector">
<path fill-rule="evenodd" clip-rule="evenodd" d="M5.29203 5.72883C5.59714 5.42372 6.09183 5.42372 6.39694 5.72883L18.8344 18.1663C19.1395 18.4714 19.1395 18.9661 18.8344 19.2712C18.5293 19.5763 18.0346 19.5763 17.7295 19.2712L5.29203 6.83374C4.98692 6.52863 4.98692 6.03395 5.29203 5.72883Z" fill="#FFF"/>
<path fill-rule="evenodd" clip-rule="evenodd" d="M5.22883 19.2712C4.92372 18.9661 4.92372 18.4714 5.22883 18.1663L17.6663 5.72883C17.9714 5.42372 18.4661 5.42372 18.7712 5.72883C19.0763 6.03395 19.0763 6.52863 18.7712 6.83374L6.33374 19.2712C6.02863 19.5763 5.53395 19.5763 5.22883 19.2712Z" fill="#FFF"/>
</g>
</g>
</svg>
